<?xml version="1.0" encoding="utf-8"?>
<!-- Generator: Adobe Illustrator 22.0.0, SVG Export Plug-In . SVG Version: 6.00 Build 0)  -->
<svg version="1.1" id="Capa_1" xmlns="http://www.w3.org/2000/svg" xmlns:xlink="http://www.w3.org/1999/xlink" x="0px" y="0px"
	 viewBox="0 0 500 500" style="enable-background:new 0 0 500 500;" xml:space="preserve">
<style type="text/css">
	.st0{fill:#0000FF;}
	.st1{fill:url(#SVGID_1_);}
	.st2{fill:url(#SVGID_2_);}
	.st3{fill:url(#SVGID_3_);}
</style>
<path class="st0" d="M13,451c-2.6-18.9-2.5-357.8-0.5-374s8.4-67,38.7-67S241,10,243,10c7.1-0.3,35.9,9.7,11.9,36.3
	C238,67,99.8,85.2,31.9,453.1C24.5,493.2,15.3,492.2,13,451z"/>
<linearGradient id="SVGID_1_" gradientUnits="userSpaceOnUse" x1="122.0997" y1="129.2123" x2="184.1003" y2="77.1877" gradientTransform="matrix(1 0 0 1 0 328)">
	<stop  offset="0" style="stop-color:#FF0000"/>
	<stop  offset="0.161" style="stop-color:#FF0303"/>
	<stop  offset="0.2913" style="stop-color:#FF0D0D"/>
	<stop  offset="0.4109" style="stop-color:#FF1E1E"/>
	<stop  offset="0.5241" style="stop-color:#FF3636"/>
	<stop  offset="0.6327" style="stop-color:#FF5555"/>
	<stop  offset="0.738" style="stop-color:#FF7B7B"/>
	<stop  offset="0.8407" style="stop-color:#FFA8A8"/>
	<stop  offset="0.9386" style="stop-color:#FFDBDB"/>
	<stop  offset="1" style="stop-color:#FFFFFF"/>
</linearGradient>
<ellipse class="st1" cx="153.1" cy="431.2" rx="28.5" ry="53"/>
<radialGradient id="SVGID_2_" cx="347.9271" cy="-75.4794" r="152.55" gradientTransform="matrix(0.5266 0 0 0.9863 68.5816 323.7453)" gradientUnits="userSpaceOnUse">
	<stop  offset="0" style="stop-color:#FFFFFF"/>
	<stop  offset="8.772660e-02" style="stop-color:#F8FFF8"/>
	<stop  offset="0.2166" style="stop-color:#E4FFE4"/>
	<stop  offset="0.3707" style="stop-color:#C4FFC4"/>
	<stop  offset="0.5445" style="stop-color:#97FF97"/>
	<stop  offset="0.7347" style="stop-color:#5DFF5D"/>
	<stop  offset="0.9356" style="stop-color:#18FF18"/>
	<stop  offset="1" style="stop-color:#00FF00"/>
</radialGradient>
<ellipse class="st2" cx="251.8" cy="249.3" rx="81" ry="149.2"/>
<linearGradient id="SVGID_3_" gradientUnits="userSpaceOnUse" x1="380.3003" y1="-287.2124" x2="318.2997" y2="-235.1876" gradientTransform="matrix(1 0 0 1 0 328)">
	<stop  offset="0" style="stop-color:#FF0000"/>
	<stop  offset="0.1664" style="stop-color:#FF0303"/>
	<stop  offset="0.2974" style="stop-color:#FF0D0D"/>
	<stop  offset="0.4163" style="stop-color:#FF1E1E"/>
	<stop  offset="0.5281" style="stop-color:#FF3535"/>
	<stop  offset="0.6349" style="stop-color:#FF5454"/>
	<stop  offset="0.7379" style="stop-color:#FF7979"/>
	<stop  offset="0.838" style="stop-color:#FFA5A5"/>
	<stop  offset="0.9332" style="stop-color:#FFD7D7"/>
	<stop  offset="1" style="stop-color:#FFFFFF"/>
</linearGradient>
<ellipse class="st3" cx="349.3" cy="66.8" rx="28.5" ry="53"/>
<path class="st0" d="M489,50c2.6,18.9,2.5,357.8,0.5,374s-8.4,67-38.7,67c-30.3,0-189.7,0-191.8,0c-7.1,0.3-35.9-9.7-11.9-36.3
	c16.9-20.7,155.1-38.9,223-406.8C477.5,7.8,486.8,8.8,489,50z"/>
</svg>
