<?xml version="1.0" encoding="utf-8"?>
<!-- Generator: Adobe Illustrator 22.0.0, SVG Export Plug-In . SVG Version: 6.00 Build 0)  -->
<svg version="1.1" id="Capa_1" xmlns="http://www.w3.org/2000/svg" xmlns:xlink="http://www.w3.org/1999/xlink" x="0px" y="0px"
	 viewBox="0 0 251 260" style="enable-background:new 0 0 251 260;" xml:space="preserve">
<style type="text/css">
	.st0{fill:#232323;}
</style>
<g>
	<path class="st0" d="M135.6,35.2c31.5,0,63,0,94.5,0c9.8,0,13.2,3.4,13.2,13c0,44.3,0,88.6,0,132.9c0,9.5-3.7,13.3-13.1,13.3
		c-12.7,0-25.3,0.2-38-0.1c-5.1-0.1-6.4,1.7-6.3,6.5c0.2,15.3,0,30.5,0.2,45.8c0.1,4.2-1.2,5.6-5.5,5.6c-29.1-0.2-58.1-0.2-87.2,0
		c-4.3,0-5.6-1.3-5.5-5.5c0.2-14.9,0.1-29.9,0.1-44.8c0-7.4,0-7.4-7.1-7.4c-12.5,0-25,0-37.5,0c-8.8,0-12.7-3.9-12.7-12.8
		c0-45.9,0-91.9,0-137.8c0-6.9,1.7-8.6,8.6-8.7C71.3,35.2,103.5,35.2,135.6,35.2z M136.7,186.4c30.3,0,60.7,0,91,0
		c7.2,0,7.5-0.3,7.5-7.3c0-42.7,0-85.4,0-128.1c0-1.1,0-2.3,0-3.4c0-2.7-1.1-4.2-4.1-4.2c-4.4-0.1-8.7-0.6-13.1-0.6
		c-57.9,0-115.9,0-173.8-0.1c-4.5,0-5.7,1.6-5.7,5.9c0.1,43.7,0.1,87.3,0.1,131c0,6.4,0.5,6.8,7,6.8
		C76,186.4,106.3,186.4,136.7,186.4z"/>
	<path class="st0" d="M116,13c31.2,0,62.3,0.2,93.5-0.2c7.9-0.1,14.2,4.8,13.3,15c-0.3,3.3-2.3,3-4.4,2.9c-2,0-4.2,0.5-4.6-2.8
		c-0.8-6.9-0.9-6.9-7.8-6.9c-60.2,0-120.4,0-180.6,0c-7.6,0-8.1,0.5-8.1,7.9c0,42.5,0,85,0,127.6c0,4-0.4,8.1,5.7,7.8
		c0.7,0,2,3.2,2,4.9c0,1.2-1.4,3.3-2.5,3.6c-6.6,1.3-13.3-4.1-13.3-10.8c-0.1-46.1-0.1-92.2,0-138.3C9.2,17.1,13.9,13,21,13
		C52.7,13,84.3,13,116,13z"/>
	<path class="st0" d="M60.9,220.8c0-5.8,0.2-11.7-0.1-17.5c-0.1-3.5,1.2-4.6,4.5-4.5c4.5,0.2,9.1,0.1,13.6,0c2.7,0,3.8,1.1,3.8,3.8
		c-0.1,12.3-0.1,24.6,0,37c0,2.8-1.2,3.7-3.8,3.6c-4.7-0.1-9.4-0.1-14.1,0c-2.9,0.1-4-1-4-4C61,233.2,60.9,227,60.9,220.8z"/>
</g>
</svg>
