<?xml version="1.0" encoding="utf-8"?>
<!-- Generator: Adobe Illustrator 22.0.0, SVG Export Plug-In . SVG Version: 6.00 Build 0)  -->
<svg version="1.1" id="Capa_1" xmlns="http://www.w3.org/2000/svg" xmlns:xlink="http://www.w3.org/1999/xlink" x="0px" y="0px"
	 viewBox="0 0 251 260" style="enable-background:new 0 0 251 260;" xml:space="preserve">
<style type="text/css">
	.st0{fill:#212421;}
</style>
<g>
	<path class="st0" d="M200,127.5c0,19.1,0.1,38.2,0,57.3c-0.1,24.1-11.8,39.1-35.7,44c-27.5,5.7-55.3,4.9-82.9,1
		c-18.3-2.6-29.4-14.6-30.2-33.2C50,163.4,50,130,49.7,96.6c-0.1-11.5-0.2-23.1,1.2-34.4C54.4,32.8,70,17.6,99.2,16
		c19.3-1.1,38.7-0.9,58,0c23.1,1.1,40,17.2,41.1,40.1c1.2,23.8,0.3,47.6,0.3,71.5C199.1,127.5,199.5,127.5,200,127.5z M187.5,105.9
		c0-11.2,0.3-22.5-0.1-33.7c-0.8-23.9-11.6-37.7-34-39.5c-19.2-1.6-38.8-1.3-58,0.5c-18.7,1.7-31,15.9-31.6,34.8
		c-0.7,24.7-0.8,49.4,0,74.1c0.7,21,16.3,35.4,37.3,35.7c15.4,0.3,30.9-0.6,46.3,0.3c20.9,1.3,39.7-13.3,40.1-40.1
		C187.6,127.3,187.5,116.6,187.5,105.9z"/>
</g>
</svg>
