<?xml version="1.0" encoding="utf-8"?>
<!-- Generator: Adobe Illustrator 22.0.0, SVG Export Plug-In . SVG Version: 6.00 Build 0)  -->
<svg version="1.1" id="Capa_1" xmlns="http://www.w3.org/2000/svg" xmlns:xlink="http://www.w3.org/1999/xlink" x="0px" y="0px"
	 viewBox="0 0 251 260" style="enable-background:new 0 0 251 260;" xml:space="preserve">
<style type="text/css">
	.st0{fill:#212421;}
</style>
<g>
	<path class="st0" d="M123.3,241.9c-33.1,0-66.2-0.2-99.3,0.2c-8,0.1-10.2-2.5-10.1-10.3c0.4-35,0.4-70.1,0-105.1
		c-0.1-8.6,2-12.5,11.1-11.3c6.2,0.8,13.4-2.1,16.4,7c0.4,1.3,5.2,1.8,8,1.8c47.4,0.1,94.9,0.2,142.3-0.1c3.4,0,6.7-3.9,10.3-5.6
		c2.9-1.3,6.2-2.8,9.3-2.9c23.4-0.5,23.4-0.4,23.4,22.5c0,31.2-0.2,62.4,0.2,93.6c0.1,7.9-2.2,10.5-10.2,10.4
		C190.8,241.7,157,241.9,123.3,241.9z M225.7,218.6c0.3-16.7,0.3-16.7-16.6-16.5c-2.2,0-4.8-0.5-6.6,0.4c-2.2,1.1-4.9,3.2-5.5,5.3
		c-5.7,20.3,1.4,28.6,22.2,26.4c0.3,0,0.7,0.1,0.9-0.1c1.9-1.7,4.8-3.1,5.4-5.2C226.3,225.8,225.7,222.1,225.7,218.6z"/>
	<path class="st0" d="M66.2,27.5c26.6,0,51.4-0.1,76.2,0.2c2.5,0,6,2.5,7.3,4.9c11,19.5,13.4,40.9,11.8,62.8c-0.1,1.9-4,4.9-6.1,5
		c-22.6,0.4-45.2,0.1-67.9,0.3c-6,0-6.8-3.3-6.4-8C82.7,70.2,78.5,49,66.2,27.5z"/>
	<path class="st0" d="M120.9,106.1c22,0,43.9-0.1,65.9,0c4.1,0,9.5-1.6,9.7,5.7c0.2,7.1-4.8,6.3-9.2,6.3c-44.5,0-89.1,0-133.6,0
		c-4.4,0-9.4,0.9-9.3-6.2c0.2-7.2,5.5-5.7,9.7-5.7C76.3,106,98.6,106.1,120.9,106.1z"/>
</g>
</svg>
