<?xml version="1.0" encoding="utf-8"?>
<!-- Generator: Adobe Illustrator 22.0.0, SVG Export Plug-In . SVG Version: 6.00 Build 0)  -->
<svg version="1.1" id="Capa_1" xmlns="http://www.w3.org/2000/svg" xmlns:xlink="http://www.w3.org/1999/xlink" x="0px" y="0px"
	 viewBox="0 0 251 260" style="enable-background:new 0 0 251 260;" xml:space="preserve">
<style type="text/css">
	.st0{fill:#212421;}
</style>
<g>
	<path class="st0" d="M127.5,172.6c-33.8,0-67.7,0-101.5,0c-12.2,0-12.9-0.7-12.9-13.1c0-8.5,0-16.9,0-25.4c0-7.5,1.7-9.3,9.1-9.3
		c21.7-0.1,43.5,0,65.2,0c47.9,0,95.8,0,143.6,0c11.3,0,12,0.7,12,12.2c0,8.5,0,16.9,0,25.4c0,8.7-1.6,10.2-10.5,10.2
		C197.5,172.6,162.5,172.6,127.5,172.6z M145.6,144.9c-24.8,0-49.6-0.1-74.3,0.1c-3.1,0-8.4-1.7-8.6,3.1c-0.1,5.3,5.3,4.4,9,4.4
		c49.2,0.1,98.3,0.1,147.5,0c2.3,0,4.6-0.3,6.7-1.1c1-0.4,1.8-2.4,1.7-3.7c0-0.9-1.5-2.2-2.5-2.5c-1.6-0.5-3.4-0.2-5.1-0.2
		C195.2,144.9,170.4,144.9,145.6,144.9z M37.9,155.5c2.7-3.6,5.3-5.5,5.2-7.4c0-1.5-3.1-3.6-5.2-4.1c-3-0.8-6.2,0.6-5.7,4.2
		C32.5,150.3,35,152,37.9,155.5z"/>
	<path class="st0" d="M238.4,120.5c-74.1,0-146.8,0-221,0c7.4-6.8,14.4-12.2,20.2-18.7c8.3-9.2,17.9-12.1,30.4-11.9
		c43.6,0.8,87.3,0.4,130.9,0.2c4.4,0,7.5,1.2,10.7,4.2C218.8,102.9,228.1,111.1,238.4,120.5z"/>
</g>
</svg>
