<?xml version="1.0" encoding="utf-8"?>
<!-- Generator: Adobe Illustrator 22.0.0, SVG Export Plug-In . SVG Version: 6.00 Build 0)  -->
<svg version="1.1" id="Capa_1" xmlns="http://www.w3.org/2000/svg" xmlns:xlink="http://www.w3.org/1999/xlink" x="0px" y="0px"
	 viewBox="0 0 251 260" style="enable-background:new 0 0 251 260;" xml:space="preserve">
<style type="text/css">
	.st0{fill:#212421;}
</style>
<g>
	<path class="st0" d="M197.6,102.6c0,27.5,0,55,0,82.4c0,10.8-1.6,12.6-12.2,13c-4.1,0.1-5.2,1.9-5.1,5.6c0.1,11.9,0,23.8,0,35.7
		c0,8.8-2.5,11.4-11,11.5c-23.2,0.1-46.3,0.1-69.5,0c-8.8,0-11-2.5-11-11.3c0-11.7-0.1-23.4,0.1-35.1c0.1-4.7-1.6-6.4-6.4-6.3
		c-12.5,0.1-14.3-1.9-14.3-14.2c0-54.3,0-108.6,0-162.9C68,9.6,69.8,7.9,81.2,7.9c34.8,0,69.7,0,104.5,0c9.7,0,12.2,2.9,12.1,12.3
		C197.6,47.7,197.7,75.2,197.6,102.6C197.7,102.6,197.6,102.6,197.6,102.6z M133.1,16.4c-15.8,0-31.6,0-47.4,0c-7.6,0-9.5,2-9.6,9.7
		C76,36,76,46,76.1,55.9c0.1,7.3,2.1,9.4,9.2,9.4c31.6,0,63.2,0,94.7,0c7.1,0,9.3-2.1,9.4-9.3c0.2-9.7,0.2-19.5,0.1-29.2
		c-0.1-8.3-2.2-10.4-10.4-10.4C163.8,16.4,148.5,16.4,133.1,16.4z M148.7,198.1c-7.1,0-14.3,0.2-21.4-0.1c-4.2-0.1-5.8,1.4-5.7,5.6
		c0.2,12.1,0.1,24.2,0,36.4c0,3.8,1.3,5.7,5.2,5.7c14.5-0.1,29,0,43.5-0.1c3.6,0,5.6-1.7,5.6-5.5c-0.1-12.3-0.1-24.7,0-37
		c0-3.5-1.4-5.1-5-5C163.4,198.2,156.1,198.1,148.7,198.1z M132.9,159.3c-2.6,0-5.2,0.1-7.8,0c-5.9-0.2-7.9,3.1-8.3,8.4
		c-1,13.8,0.4,18.1,6.9,18.8c5.1,0.5,10.3,0.1,15.5,0c8.1-0.1,9.9-1.9,10.1-9.9C149.7,159.2,148.5,158.7,132.9,159.3z M132.9,116.1
		c2.8,0,5.6-0.1,8.4,0c6.7,0.4,7.6-4.2,8-9.3c0.9-12.3-0.5-16.6-6-17.7c-1.3-0.2-2.6-0.2-3.9-0.2c-4.1,0-8.2,0-12.3,0
		c-8.3,0.1-10,1.9-10.2,10.4C116.5,115.9,116.7,116.1,132.9,116.1z M132.8,151.3c2.2,0,4.3-0.1,6.5,0c4.4,0.2,8.2-0.5,9.6-5.5
		c2-6.9,0.3-19-3.2-20.7c-1.5-0.7-3.3-0.8-5-0.9c-4.5-0.1-9-0.1-13.6,0c-8.3,0-10,1.8-10.3,10.3
		C116.3,150.7,116.9,151.3,132.8,151.3z M94.9,159.3c-2.8,0-5.6,0-8.4,0c-4.7-0.1-8,2.3-7.5,6.9c0.9,6.9-4.5,15.5,5.1,20.2
		c0.6,0.3,1.3,0.3,1.9,0.3c4.3,0.1,8.6,0.3,12.9,0.2c10.1-0.1,11.7-1.8,11.7-11.7C110.7,159.2,110.7,159.2,94.9,159.3z M156.7,172.4
		C156.7,172.4,156.6,172.4,156.7,172.4c0,1.5,0,3,0,4.5c0.1,8.2,1,9.3,9.3,9.7c4.9,0.3,9.9,0.1,14.9-0.1c5-0.2,7.7-3.3,7.4-8
		c-0.4-6.5,3.2-14.1-4.5-18.9c-0.7-0.4-1.7-0.4-2.5-0.4c-6,0-12.1-0.1-18.1,0c-4.2,0.1-6.2,2.5-6.3,6.6
		C156.6,168.1,156.7,170.3,156.7,172.4z M94.6,116.1c2.8,0,5.6,0.1,8.4,0c6.2-0.3,7.5-2.3,7.6-11.5c0.1-13.4-0.7-15.2-7.4-15.5
		c-4.5-0.2-9.1-0.1-13.6,0c-9.5,0.1-10.7,1.4-10.8,11C78.7,116.1,78.7,116.1,94.6,116.1z M94.4,151.3c16.3,0,16.3,0,16.2-16.6
		c0-0.9,0-1.7,0-2.6c-0.1-5.2-2.5-8.1-8-7.9c-4.1,0.1-8.2,0-12.3,0c-10.5,0-11.5,1-11.5,11.5C78.7,151.3,78.7,151.3,94.4,151.3z
		 M172,151.3c16.3,0,17.1-0.8,16.3-17.2c0-0.2,0-0.4,0-0.6c-0.4-7.2-2.4-9.2-9.5-9.3c-3.7-0.1-7.3,0-11,0
		c-10.8,0-11.2,0.5-11.2,11.4C156.6,151.3,156.6,151.3,172,151.3z M171.9,116.1c16.3,0,17-0.8,16.5-17.1c0-0.4,0-0.9,0-1.3
		c-0.2-5.6-2.8-8.9-8.8-8.7c-3.7,0.1-7.3,0-11,0c-11.6,0-11.9,0.3-11.9,12.1C156.6,116.1,156.6,116.1,171.9,116.1z M109.6,222.2
		L109.6,222.2c0-6.5,0.3-13-0.2-19.4c-0.1-1.6-2.6-3.7-4.5-4.4c-1.8-0.8-4.3,0-6.4-0.2c-4.4-0.4-5.6,1.7-5.5,5.7
		c0.2,11.9,0.2,23.8,0,35.7c-0.2,6.9,4.4,6.2,8.7,6.2c4.3,0.1,8.4,0.4,8-6.1C109.3,233.9,109.6,228,109.6,222.2z"/>
	<path class="st0" d="M63.1,108.5c0,22.7,0.1,45.4-0.1,68.2c0,2-1.8,4.1-2.7,6.1c-1.6-1.9-3.6-3.7-4.8-5.9c-0.7-1.1-0.2-3-0.2-4.5
		c0-43.3,0-86.6,0-129.9c0-1.5-0.5-3.4,0.2-4.5c1.2-2,3.2-3.5,4.8-5.1c0.9,1.8,2.7,3.6,2.7,5.5C63.2,61.7,63.1,85.1,63.1,108.5z"/>
</g>
</svg>
