<?xml version="1.0" encoding="utf-8"?>
<!-- Generator: Adobe Illustrator 22.0.0, SVG Export Plug-In . SVG Version: 6.00 Build 0)  -->
<svg version="1.1" id="Capa_1" xmlns="http://www.w3.org/2000/svg" xmlns:xlink="http://www.w3.org/1999/xlink" x="0px" y="0px"
	 viewBox="0 0 250 250" style="enable-background:new 0 0 250 250;" xml:space="preserve">
<style type="text/css">
	.st0{fill:#212421;}
</style>
<g>
	<path class="st0" d="M48.2,204c0-24.9,0-49,0-73c0-0.9,0-1.9,0.2-2.8c0.8-3.3-0.2-5.3-3.6-6.5c-10.1-3.6-17.3-16.4-14.5-27.1
		c4.3,0,8.7,0,13.2,0c58.1,0,116.2,0,174.2,0c5.3,0,5.1,0,5,5.4c-0.2,10.8-5.8,17.8-15.3,21.9c-2.6,1.1-3.9,2.5-3.1,5.5
		c0.4,1.5,0.2,3.2,0.2,4.9c0,21.9,0,43.8,0,65.7c0,6,0.1,6,6.2,6.1c2.4,0,5-0.4,7.3,0.3c1.6,0.5,3.8,2.1,4.1,3.6
		c0.5,2.5,0.5,5.6-3.2,6.4c-1.6,0.3-3.2,0.6-4.8,0.6c-58.5,0-117,0-175.5,0c-2.2,0-4.7-0.3-6.3-1.5c-1.3-0.9-2.7-3.9-2.1-5
		c1-1.8,3.3-3.8,5.3-4C39.6,203.6,43.9,204,48.2,204z M128.8,108.9c2.3-0.2,3.6-0.4,5-0.4c11,0,22,0,33.1,0c12.7,0,25.3-0.1,38,0
		c3.2,0,4.5-1.2,4.4-4.3c-0.1-2.7,0-5.5,0-8c-2.8,0.2-5.3,0.5-7.9,0.5c-50.6,0-101.2,0-151.8,0c-5.4,0-5.6,0.3-5.6,5.9
		s0.2,5.8,5.6,5.9c9,0,18.1,0,26.8,0c-0.9,1.2-1.6,2.6-2.6,3.5c-3.2,3.1-6.1,7-9.9,8.7c-4.2,1.9-5.1,4.5-5.1,8.4
		c0,23.4,0.1,46.8,0,70.2c0,3.6,1.3,4.8,4.8,4.8c28-0.1,56.1-0.1,84.1,0c2.9,0,4.1-0.8,4.1-4c-0.1-24.2-0.1-48.4,0-72.6
		c0-3-0.8-3.9-3.8-4.2C138.9,122.4,133.6,116.7,128.8,108.9z M193.8,163c0-12.2,0.1-24.5-0.1-36.7c0-1.4-0.7-3.6-1.7-4
		c-6-2.5-10.6-6.4-14-11.9c-0.6-1-3.4-1.7-4.5-1.2c-3.1,1.5-3.5,6.1-7.7,7c-1.7,0.4-2.6,3.9-4.4,4.3c-5.1,1.4-6.2,4.3-5.1,8.9
		c0.2,0.6,0,1.4,0,2c0,22.7,0.1,45.4-0.1,68.1c0,3.5,1.2,4.4,4.4,4.4c9.5-0.1,19-0.2,28.5,0c3.5,0.1,4.7-1.1,4.7-4.7
		C193.7,187.2,193.8,175.1,193.8,163z"/>
	<path class="st0" d="M222.2,86.6c-64.1,0-127.5,0-191.4,0c2-4.2,3.8-8.1,5.7-11.9c4.6-9.3,9.5-18.6,14-28c2.3-4.8,5.6-7,11.1-6.9
		c44.3,0.1,88.7,0.1,133,0c3.4,0,5.1,1.1,6.5,4.1c5.8,12.5,11.9,24.9,17.9,37.3C219.7,82.8,220.8,84.4,222.2,86.6z M126.3,44.1
		L126.3,44.1c19,0,38.1,0,57.1-0.1c1.7,0,3.5-1,5.2-1.6c-1.8-0.6-3.7-1.9-5.5-1.9c-37.8-0.1-75.6-0.1-113.4-0.1c-1,0-2-0.2-2.8,0.1
		c-1.1,0.4-2,1.2-3,1.9c1,0.5,1.9,1.2,2.9,1.6c0.5,0.2,1.1,0,1.6,0C87.7,44.1,107,44.1,126.3,44.1z M103.3,44.9
		c-0.6,0.5-1,0.6-1.2,1c-4.9,8.7-9.7,17.5-14.7,26.2c-1.5,2.6-2,5,1,6.6c2.9,1.5,4.5-0.7,5.7-2.9c3.4-6.3,6.8-12.7,10.3-19
		c2-3.6,4.2-7-0.8-10C103.3,46.6,103.4,45.7,103.3,44.9z M161.2,80.1c3.2-1.3,6.7-2.4,5-6c-3.8-8.3-8.1-16.4-12.3-24.5
		c-1.2-2.4-3.4-2.7-5.5-1.2c-1.8,1.3-2.6,2.8-1,5.1c1.8,2.5,2.8,5.5,4.3,8.3C154.9,67.9,158,74,161.2,80.1z M191,76
		c-0.2-1-0.2-1.2-0.3-1.5C186.5,66,182.4,57.4,178,49c-0.5-0.9-3.4-1.5-4.5-1c-1.1,0.6-2.1,3.3-1.7,4.3c3.8,8.4,7.9,16.7,12.3,24.8
		c0.6,1,3,1.6,4.5,1.4C189.6,78.5,190.4,76.7,191,76z M82.1,50.7c-1.1-1-2.3-2.8-3.6-3c-1.3-0.2-3.5,0.9-4.1,2.1
		c-4.2,7.9-8,16-12.1,23.9c-1.5,2.8,0.1,4.3,2.1,5.1c2.8,1.1,4.2-0.9,5.3-3.1c3.8-7.5,7.5-15,11.3-22.5C81.3,52.6,81.5,52,82.1,50.7
		z M129.8,62.3c0.1,0,0.2,0,0.2,0c0-3.4,0-6.8,0-10.2c0-2.6-0.9-4.8-3.8-4.7c-3,0.1-3.9,2.7-4,5.2c-0.1,2.1,0.1,4.3,0.1,6.5
		c0.1,5.4-0.1,10.9,0.5,16.3c0.1,1.4,2.5,3.5,3.9,3.4c1.3,0,3.6-2.2,3.7-3.6C130.7,70.9,130.1,66.6,129.8,62.3z"/>
	<path class="st0" d="M126.2,32c-21.2,0-42.4,0-63.7,0c-5.6,0-8.6-1.9-8.4-5.4c0.2-3.4,3.2-5.4,8.3-5.4c30.9,0,61.8,0,92.7,0
		c12.4,0,24.8,0,37.1,0c3.2,0,5.6,1.6,6.1,4.3c0.3,1.7-1,4.1-2.3,5.5c-0.9,0.9-3,0.9-4.5,1C169.7,32.1,148,32.1,126.2,32
		C126.2,32.1,126.2,32,126.2,32z"/>
	<path class="st0" d="M102,179.8c-7.9,0-15.8,0.1-23.6,0c-6.1-0.1-8-2-8-8.1c0-7.7,0-15.5,0-23.2c0-4.8,1.9-6.7,6.6-6.7
		c16,0,32.1-0.1,48.1,0c6.1,0,8.3,2.5,8.4,8.8c0,6.9,0,13.9,0,20.8c0,6.3-2.2,8.5-8.6,8.5C117.2,179.8,109.6,179.8,102,179.8z
		 M101.7,176.4c8,0,16-0.1,24,0c3.1,0,4.4-1.1,4.4-4.3c-0.1-7.5-0.1-14.9,0-22.4c0-3.6-1.3-5.1-5.1-5.1c-15.5,0.1-31,0-46.4,0.1
		c-4.5,0-5.4,0.9-5.4,5.5c-0.1,7.2,0.1,14.4-0.1,21.6c-0.1,3.3,1.2,4.7,4.5,4.6C85.6,176.3,93.6,176.4,101.7,176.4z"/>
	<path class="st0" d="M80.1,108.6c15,0,29.9,0,44.4,0c-5.4,9.8-13.5,16.1-25.6,14.6C90.1,122.1,84.1,116.6,80.1,108.6z"/>
	<path class="st0" d="M168.1,178.1c-0.7-0.5-2.8-1.3-3.6-2.9c-0.7-1.3-0.6-3.7,0.2-5.2c3.2-6.3,3.4-12.5-0.1-18.7
		c-1.3-2.3-1.9-4.6,0.5-6.1c1.9-1.2,4.3-3.5,6.5-0.9c1.6,1.9,3.9,3.8,1.5,7.4c-3.7,5.4-3.1,11.6-0.5,17.2
		C174.8,173.6,173.7,177.9,168.1,178.1z"/>
	<path class="st0" d="M101.2,153.1c3.5,4.1,7,8.1,10.5,12.2c0.2-0.1,0.3-0.3,0.5-0.4c-3.4-4.1-6.8-8.2-10.2-12.3
		C101.7,152.8,101.4,153,101.2,153.1z"/>
	<path class="st0" d="M95,164.1c-2-2.2-4.1-4.4-6.1-6.6c0.2-0.2,0.4-0.5,0.7-0.7c2.2,2.1,4.4,4.2,6.5,6.2
		C95.7,163.3,95.3,163.7,95,164.1z"/>
</g>
</svg>
