<?xml version="1.0" encoding="utf-8"?>
<!-- Generator: Adobe Illustrator 22.0.0, SVG Export Plug-In . SVG Version: 6.00 Build 0)  -->
<svg version="1.1" id="Capa_1" xmlns="http://www.w3.org/2000/svg" xmlns:xlink="http://www.w3.org/1999/xlink" x="0px" y="0px"
	 viewBox="0 0 600 400" style="enable-background:new 0 0 600 400;" xml:space="preserve">
<style type="text/css">
	.st0{fill:#0000FF;}
	.st1{fill:url(#SVGID_1_);}
	.st2{fill:url(#SVGID_2_);}
	.st3{fill:url(#SVGID_3_);}
</style>
<path class="st0" d="M18.2,321.4c-3.1-11.4-3-216.6-0.6-226.5s10-40.6,46.1-40.6s225.9,0,228.3,0c8.4-0.2,42.7,5.9,14.2,22
	C285.9,88.9,121.5,99.9,40.7,322.7C31.9,347,20.9,346.4,18.2,321.4z"/>
<linearGradient id="SVGID_1_" gradientUnits="userSpaceOnUse" x1="159.4895" y1="399.2327" x2="210.318" y2="441.8828" gradientTransform="matrix(1 0 0 -1 0 730)">
	<stop  offset="0" style="stop-color:#FF0000"/>
	<stop  offset="0.161" style="stop-color:#FF0303"/>
	<stop  offset="0.2913" style="stop-color:#FF0D0D"/>
	<stop  offset="0.4109" style="stop-color:#FF1E1E"/>
	<stop  offset="0.5241" style="stop-color:#FF3636"/>
	<stop  offset="0.6327" style="stop-color:#FF5555"/>
	<stop  offset="0.738" style="stop-color:#FF7B7B"/>
	<stop  offset="0.8407" style="stop-color:#FFA8A8"/>
	<stop  offset="0.9386" style="stop-color:#FFDBDB"/>
	<stop  offset="1" style="stop-color:#FFFFFF"/>
</linearGradient>
<ellipse class="st1" cx="184.9" cy="309.4" rx="33.9" ry="32.1"/>
<radialGradient id="SVGID_2_" cx="448.4396" cy="762.0542" r="181.544" gradientTransform="matrix(0.5266 0 0 -0.5018 66.2146 581.7179)" gradientUnits="userSpaceOnUse">
	<stop  offset="0" style="stop-color:#FFFFFF"/>
	<stop  offset="8.772660e-02" style="stop-color:#F8FFF8"/>
	<stop  offset="0.2166" style="stop-color:#E4FFE4"/>
	<stop  offset="0.3707" style="stop-color:#C4FFC4"/>
	<stop  offset="0.5445" style="stop-color:#97FF97"/>
	<stop  offset="0.7347" style="stop-color:#5DFF5D"/>
	<stop  offset="0.9356" style="stop-color:#18FF18"/>
	<stop  offset="1" style="stop-color:#00FF00"/>
</radialGradient>
<ellipse class="st2" cx="302.4" cy="199.3" rx="96.4" ry="90.3"/>
<linearGradient id="SVGID_3_" gradientUnits="userSpaceOnUse" x1="443.8082" y1="662.5249" x2="392.9798" y2="619.8746" gradientTransform="matrix(1 0 0 -1 0 730)">
	<stop  offset="0" style="stop-color:#FF0000"/>
	<stop  offset="0.1664" style="stop-color:#FF0303"/>
	<stop  offset="0.2974" style="stop-color:#FF0D0D"/>
	<stop  offset="0.4163" style="stop-color:#FF1E1E"/>
	<stop  offset="0.5281" style="stop-color:#FF3535"/>
	<stop  offset="0.6349" style="stop-color:#FF5454"/>
	<stop  offset="0.7379" style="stop-color:#FF7979"/>
	<stop  offset="0.838" style="stop-color:#FFA5A5"/>
	<stop  offset="0.9332" style="stop-color:#FFD7D7"/>
	<stop  offset="1" style="stop-color:#FFFFFF"/>
</linearGradient>
<ellipse class="st3" cx="418.4" cy="88.8" rx="33.9" ry="32.1"/>
<path class="st0" d="M584.6,78.6c3.1,11.4,3,216.6,0.6,226.5s-10,40.6-46.1,40.6c-36.1,0-225.8,0-228.3,0c-8.4,0.2-42.7-5.9-14.2-22
	c20.1-12.5,184.6-23.6,265.4-246.3C571,53.1,582,53.7,584.6,78.6z"/>
</svg>
