<?xml version="1.0" encoding="utf-8"?>
<!-- Generator: Adobe Illustrator 22.0.0, SVG Export Plug-In . SVG Version: 6.00 Build 0)  -->
<svg version="1.1" id="Capa_1" xmlns="http://www.w3.org/2000/svg" xmlns:xlink="http://www.w3.org/1999/xlink" x="0px" y="0px"
	 viewBox="0 0 200 172.2" style="enable-background:new 0 0 200 172.2;" xml:space="preserve">
<style type="text/css">
	.st0{opacity:0.7;}
	.st1{fill:#FFFFFF;}
</style>
<circle class="st0" cx="100" cy="86.2" r="83"/>
<g>
	<path class="st1" d="M84.2,104.4c0.6,1.6,1.2,3.2,1.8,4.7c0.2,0.7,0.6,0.9,1.3,0.9c15.2,0,30.4,0,45.6,0c1,0,1.9,0.1,2.8,0.2
		c6.9,1.2,11.6,8,10.3,14.9c-1.4,7.2-8,11.7-15.1,10.3c-6.3-1.2-11-7.7-10-14c0.1-0.9,0.3-1.8,0.5-2.7c-8.6,0-17.2,0-25.9,0
		c1.1,3.5,0.9,6.9-0.9,10.1c-1.7,3.2-4.3,5.4-7.8,6.4c-5.8,1.6-12-1.2-14.7-6.7c-2.7-5.4-1.4-13.4,5.5-17.2
		c-0.1-0.2-0.2-0.5-0.3-0.9C69.7,90.4,62.1,70.2,54.5,50c-0.2-0.5-0.5-0.7-1-0.7c-3.4,0-6.8,0-10.2,0c-2.6,0-4.6-1.9-4.6-4.4
		c0-2.5,2-4.4,4.6-4.4c4.5,0,9,0,13.5,0c2.2,0,3.7,1,4.4,3.1c1.5,3.9,3,7.8,4.4,11.7c0.2,0.7,0.6,1,1.4,1c28.1,0,56.2,0,84.3,0
		c3.3,0,5.4,2.8,4.4,6c-3.9,12.7-7.8,25.3-11.7,38c-0.8,2.6-2.2,3.7-4.9,3.7c-17.9,0-36,0-54,0c-0.4,0-0.7,0-1.1,0
		C84.1,104.2,84.2,104.4,84.2,104.4z M69.4,65.2c0.1,0.2,0.1,0.4,0.2,0.6c1.5,4,3,8,4.6,12.1c0.2,0.5,0.5,0.8,1.1,0.8
		c6.2,0,12.4,0,18.6,0c0.2,0,0.5,0,0.9,0c-0.4-4.5-0.7-9-1-13.5C85.5,65.2,77.5,65.2,69.4,65.2z M123.1,65.2
		c-0.4,4.4-0.7,8.9-1,13.4c0.3,0.1,0.5,0.1,0.8,0.1c6,0,12,0,18,0c0.5,0,0.7-0.1,0.9-0.7c1.2-4.1,2.4-8.1,3.7-12.2
		c0.1-0.2,0.1-0.4,0.2-0.7C138.2,65.2,130.8,65.2,123.1,65.2z M98,65.2c0.4,4.5,0.7,9,1,13.5c0.3,0,0.5,0,0.8,0c5.7,0,11.4,0,17.2,0
		c0.7,0,0.9-0.2,0.9-0.9c0.3-4,0.6-8,0.9-11.9c0-0.2,0.1-0.4,0.1-0.7C111.9,65.2,105,65.2,98,65.2z M102.3,95.1
		c4.5,0,8.9-0.1,13.4,0c0.7,0,0.9-0.2,0.9-0.9c0.2-3.4,0.5-6.9,0.8-10.3c0.1-0.2,0.1-0.5,0.1-0.9c-6,0-11.9,0-18,0
		c0.3,4,0.6,7.9,0.9,12C101.1,95.1,101.7,95.1,102.3,95.1z M95.6,90.6c-0.2-2.3-0.4-4.6-0.5-6.9C95,83.3,95,83,94.4,83
		c-5.9,0-11.9,0-17.8,0c-0.1,0-0.2,0.1-0.5,0.1c0.1,0.3,0.2,0.5,0.2,0.8c1.3,3.6,2.7,7.1,4,10.6c0.1,0.4,0.2,0.6,0.7,0.6
		c4.8,0,9.6,0,14.4,0c0.1,0,0.2-0.1,0.4-0.1C95.9,93.6,95.8,92.1,95.6,90.6z M121.7,83.1c-0.3,4-0.6,8-0.9,12c0.3,0,0.5,0,0.8,0
		c4.7,0,9.4,0,14.2,0c0.4,0,0.7,0,0.9-0.5c1.2-3.7,2.3-7.4,3.4-11.1c0.1-0.1,0.1-0.2,0.1-0.4C134.1,83.1,128,83.1,121.7,83.1z
		 M133.6,119c-2.2,0-4,1.8-4,4.1c0,2.3,1.8,4.1,4,4.1s4-1.8,4-4.1C137.5,120.9,135.7,119,133.6,119z M83.4,127.1c2.1,0,4-1.8,4-4.1
		c0.1-2.2-1.8-4.1-4-4.1s-4,1.8-4,4.1C79.4,125.3,81.2,127.1,83.4,127.1z"/>
</g>
</svg>
